<?xml version="1.0" standalone="no"?>
<!DOCTYPE svg PUBLIC "-//W3C//DTD SVG 20010904//EN"
 "http://www.w3.org/TR/2001/REC-SVG-20010904/DTD/svg10.dtd">
<svg version="1.0" xmlns="http://www.w3.org/2000/svg"
     width="627.000000pt" height="627.000000pt" viewBox="0 0 627.000000 627.000000"
     preserveAspectRatio="xMidYMid meet">
    <metadata>
        Created by potrace 1.11, written by Peter Selinger 2001-2013
    </metadata>
    <g transform="translate(0.000000,627.000000) scale(0.100000,-0.100000)"
       fill="#000000" stroke="none">
        <path d="M3176 6021 c-10 -15 -204 -25 -221 -11 -18 15 -18 15 -32 -32 -13
-45 1 -61 23 -29 10 14 26 21 48 21 l33 0 7 -77 c10 -118 9 -122 -19 -133 -48
-18 -26 -30 55 -30 51 0 80 4 80 11 0 6 -9 13 -19 16 -23 6 -31 41 -31 139 l0
74 30 0 c19 0 33 -7 40 -20 18 -33 30 -23 30 24 0 43 -12 67 -24 47z"/>
        <path d="M3335 6000 c-4 -7 1 -14 14 -17 24 -6 25 -10 11 -106 -16 -107 -18
-114 -40 -120 -27 -7 -25 -27 3 -27 12 0 46 -3 75 -6 33 -4 52 -3 52 3 0 6
-10 13 -21 16 -19 5 -21 11 -16 47 3 23 8 44 11 47 2 3 32 2 65 -2 58 -7 61
-8 61 -33 0 -47 -11 -72 -31 -72 -36 0 -19 -18 24 -25 23 -3 54 -8 70 -11 20
-4 27 -2 27 10 0 9 -7 16 -16 16 -13 0 -15 7 -11 38 4 20 9 68 13 105 6 61 10
70 32 78 15 6 21 13 16 18 -14 13 -144 24 -144 12 0 -5 10 -13 21 -16 19 -6
20 -12 15 -48 -4 -23 -8 -43 -10 -45 -2 -2 -31 0 -65 4 -61 7 -61 7 -61 39 0
46 9 65 31 65 38 0 18 18 -28 25 -27 3 -58 9 -69 12 -12 2 -25 -1 -29 -7z"/>
        <path d="M2660 5968 c-25 -5 -67 -12 -94 -16 -52 -7 -77 -32 -33 -32 23 0 26
-5 41 -87 20 -109 20 -133 2 -133 -16 0 -31 -18 -23 -26 3 -3 38 1 78 9 41 8
100 18 132 22 l57 6 0 45 c0 48 -15 58 -30 20 -11 -30 -34 -43 -87 -52 -39 -6
-40 -5 -47 26 -11 59 -8 67 27 73 25 4 36 0 49 -16 23 -30 30 -18 21 38 -9 52
-29 71 -35 33 -2 -16 -12 -24 -38 -29 -19 -4 -37 -6 -39 -4 -2 2 -6 24 -8 48
l-5 44 52 7 c46 6 54 4 67 -13 21 -31 35 -25 31 12 -3 29 -6 32 -38 34 -19 1
-55 -3 -80 -9z"/>
        <path d="M2338 5896 c-58 -18 -76 -36 -38 -36 19 0 19 -3 -7 -56 l-28 -55 -13
41 c-13 38 -13 42 4 55 33 24 8 27 -57 7 -65 -20 -89 -42 -47 -42 21 0 27 -11
56 -97 29 -90 30 -98 15 -115 -25 -28 -10 -31 57 -10 63 19 80 35 44 40 -14 2
-25 15 -32 39 -6 21 -10 39 -8 41 2 2 25 -10 50 -25 35 -22 43 -32 34 -41 -6
-6 -9 -14 -6 -17 7 -7 128 26 128 35 0 4 -21 18 -47 32 -27 13 -67 37 -91 51
l-42 27 21 41 c11 23 32 52 46 65 37 35 25 41 -39 20z"/>
        <path d="M4010 5860 c0 -5 7 -13 15 -17 13 -8 11 -20 -15 -92 -40 -108 -48
-122 -67 -119 -9 2 -18 -2 -20 -7 -2 -6 41 -26 96 -44 90 -30 101 -32 127 -20
41 20 59 61 42 97 -13 25 -12 29 14 54 34 32 35 39 3 77 -18 21 -49 37 -103
55 -86 29 -92 30 -92 16z m131 -60 c37 -20 18 -80 -25 -80 -39 0 -45 12 -29
53 16 39 23 43 54 27z m-28 -118 c48 -42 -17 -118 -72 -83 -12 7 -11 17 4 59
19 53 30 56 68 24z"/>
        <path d="M1924 5746 c-61 -27 -83 -92 -44 -134 24 -25 44 -31 120 -34 51 -3
55 -5 55 -28 0 -16 -9 -29 -27 -39 -25 -14 -30 -14 -58 2 -40 24 -54 14 -35
-24 18 -34 34 -36 92 -10 55 26 79 69 63 117 -15 43 -35 54 -104 54 -30 0 -61
3 -70 6 -24 9 -19 43 9 56 19 9 29 8 50 -6 35 -23 49 -12 30 25 -17 32 -34 35
-81 15z"/>
        <path d="M4388 5595 c-68 -60 -104 -85 -122 -85 -39 0 -31 -16 20 -40 47 -23
66 -21 44 5 -11 14 -10 19 8 38 21 20 23 20 57 4 36 -17 39 -25 29 -65 -5 -17
-11 -21 -25 -17 -12 4 -19 2 -18 -7 0 -15 116 -75 125 -65 4 4 1 14 -6 22 -11
13 -11 40 -1 145 12 120 10 150 -7 150 -4 0 -51 -38 -104 -85z m48 -40 c-6
-22 -9 -23 -26 -13 -19 12 -19 13 3 36 23 25 33 16 23 -23z"/>
        <path d="M2960 5610 c-371 -27 -725 -135 -1040 -316 -132 -76 -123 -70 -245
-160 -324 -238 -574 -532 -751 -886 -93 -186 -177 -423 -212 -598 -43 -214
-46 -255 -46 -515 -1 -279 9 -371 61 -585 227 -938 975 -1662 1916 -1854 186
-38 282 -47 496 -47 219 0 327 10 511 47 655 134 1237 539 1605 1119 72 114
181 339 230 474 164 456 190 987 69 1457 -167 653 -600 1217 -1189 1551 -415
236 -920 349 -1405 313z m400 -105 c307 -29 543 -93 813 -223 608 -291 1076
-842 1262 -1484 70 -241 90 -391 89 -673 0 -246 -12 -355 -60 -550 -28 -114
-86 -295 -94 -295 -3 0 -21 15 -40 33 -19 17 -85 77 -145 132 -61 55 -112 102
-115 105 -6 6 -239 219 -256 235 -22 20 -120 110 -184 169 -36 34 -114 106
-175 161 -142 130 -237 217 -251 230 -6 5 -58 53 -115 105 -57 52 -165 151
-239 220 -75 69 -265 243 -422 387 -157 144 -312 286 -345 316 -32 30 -202
186 -378 347 -176 161 -367 337 -425 390 -58 53 -122 112 -143 130 l-39 34 48
24 c122 62 377 144 550 177 112 22 313 42 424 44 47 0 155 -6 240 -14z m-1307
-755 c14 -12 24 -27 21 -34 -7 -18 -50 -37 -68 -30 -31 12 -24 84 8 84 7 0 25
-9 39 -20z m-206 -40 c10 -88 -21 -119 -51 -51 -22 48 -18 72 14 88 30 15 31
14 37 -37z m105 0 c-2 -25 -8 -49 -12 -54 -14 -14 -39 1 -50 30 -14 35 11 77
43 72 20 -3 22 -8 19 -48z m-198 -46 c17 -50 14 -64 -11 -64 -43 0 -79 70 -51
98 25 25 46 13 62 -34z m397 -30 c26 -45 29 -58 18 -65 -8 -5 -19 -9 -26 -9
-18 0 -43 41 -43 71 0 26 9 59 15 59 2 0 18 -25 36 -56z m-78 -43 c15 -73 -24
-81 -53 -11 -10 24 -10 33 0 45 22 27 44 13 53 -34z m-409 17 c19 -13 38 -31
42 -42 15 -44 -42 -46 -92 -3 -23 20 -25 26 -15 45 15 27 21 27 65 0z m303 4
c17 -10 27 -78 13 -87 -24 -15 -57 46 -43 82 6 15 13 16 30 5z m-84 -24 c9 -7
19 -33 23 -58 7 -43 7 -44 -12 -30 -46 36 -66 75 -47 93 9 10 17 9 36 -5z
m-54 -76 c49 -77 40 -92 -29 -44 -44 30 -57 56 -40 77 21 25 37 17 69 -33z
m-220 2 c26 -33 28 -59 4 -49 -10 4 -31 13 -48 19 -37 14 -47 27 -33 43 17 21
55 15 77 -13z m626 -20 c19 -46 19 -63 -1 -71 -22 -8 -64 35 -64 68 0 26 10
36 37 38 7 1 20 -15 28 -35z m-106 -41 c8 -22 11 -48 7 -59 -7 -17 -10 -16
-37 16 -31 37 -36 59 -17 78 19 19 32 9 47 -35z m-368 1 c83 -61 58 -88 -31
-33 -47 29 -59 47 -43 62 12 12 25 7 74 -29z m257 -4 c2 -13 13 -35 23 -49 22
-28 11 -51 -24 -51 -25 0 -97 67 -97 91 0 20 36 39 70 36 18 -1 26 -9 28 -27z
m-430 -26 c12 -8 22 -21 22 -29 0 -12 -10 -13 -47 -8 -57 7 -83 19 -83 38 0
28 62 27 108 -1z m139 -40 c36 -28 42 -44 16 -44 -27 0 -83 38 -83 55 0 23 29
18 67 -11z m177 -5 c42 -50 60 -90 45 -100 -12 -7 -104 22 -121 39 -8 8 31 92
44 92 3 0 18 -14 32 -31z m340 -51 c3 -16 3 -28 -1 -28 -14 0 -43 34 -43 50 0
43 32 27 44 -22z m-52 -41 c28 -44 29 -53 3 -44 -22 9 -55 68 -54 97 0 23 1
24 12 6 7 -10 24 -37 39 -59z m-604 51 c7 -7 12 -20 12 -30 0 -14 -6 -16 -32
-11 -45 8 -68 21 -68 38 0 19 70 21 88 3z m98 -27 c5 -5 20 -11 34 -13 36 -5
32 -32 -6 -36 -32 -3 -89 32 -79 49 8 12 38 12 51 0z m443 -40 c40 -48 50 -71
31 -71 -14 0 -100 91 -100 106 0 28 29 13 69 -35z m-569 -16 c30 -15 35 -29
24 -59 -9 -22 -34 -20 -61 6 -32 30 -30 58 5 67 2 1 16 -6 32 -14z m339 -30
c12 -11 13 -21 5 -42 -9 -25 -15 -28 -52 -27 -42 1 -82 25 -82 49 0 7 9 24 21
39 20 25 21 25 57 10 20 -8 44 -21 51 -29z m146 29 c38 -25 99 -104 88 -115
-11 -11 -155 110 -147 123 8 13 33 9 59 -8z m234 -42 c-34 -91 -113 -170 -177
-178 l-37 -5 30 23 c45 35 104 98 133 143 14 22 30 43 36 47 18 12 26 -2 15
-30z m-575 -3 c26 -20 35 -49 16 -49 -16 0 -74 31 -82 44 -7 11 9 26 28 26 6
0 23 -9 38 -21z m316 -35 c63 -53 73 -119 12 -75 -16 11 -40 23 -55 26 -35 9
-40 18 -26 49 15 33 30 33 69 0z m476 -39 c50 -19 118 -39 152 -46 34 -7 62
-18 62 -25 0 -14 -39 -64 -50 -64 -5 0 -60 24 -122 53 -62 29 -139 64 -170 77
-39 16 -58 29 -58 41 0 25 20 29 60 12 19 -9 76 -30 126 -48z m-851 4 c55 -15
67 -26 54 -50 -5 -10 -18 -19 -29 -19 -23 0 -92 58 -84 71 7 11 10 11 59 -2z
m-550 -101 c55 -50 127 -116 160 -147 33 -31 114 -106 180 -166 66 -60 143
-130 170 -156 28 -25 140 -129 250 -230 251 -231 665 -611 679 -624 6 -6 146
-134 311 -285 165 -151 302 -277 305 -280 3 -3 59 -54 125 -115 66 -60 122
-112 125 -115 5 -5 205 -189 290 -266 25 -23 137 -126 250 -230 113 -104 247
-227 297 -273 51 -46 90 -87 88 -91 -7 -12 -243 -126 -320 -155 -290 -110
-544 -157 -855 -157 -275 -1 -487 32 -740 113 -681 220 -1239 750 -1495 1419
-95 247 -144 496 -152 770 -8 277 19 503 92 755 35 120 117 325 130 325 5 0
55 -41 110 -92z m714 68 c15 -8 34 -22 41 -31 12 -15 12 -19 -5 -31 -19 -14
-71 -19 -99 -8 -18 7 -20 22 -6 58 11 29 29 32 69 12z m656 -69 c131 -57 171
-78 173 -93 3 -24 -33 -80 -70 -107 l-27 -20 -58 48 c-104 86 -232 217 -226
231 9 23 31 17 208 -59z m-488 29 c9 -8 0 -17 -37 -38 l-50 -28 0 29 c0 54 48
75 87 37z m422 -184 l114 -108 -18 -28 c-19 -29 -82 -66 -112 -66 -19 0 -23 5
-65 80 -14 25 -50 90 -82 146 -60 107 -66 130 -38 136 21 5 57 -23 201 -160z
m-177 -33 c96 -192 94 -185 56 -220 -18 -16 -36 -29 -39 -29 -4 0 -10 19 -14
42 -9 53 -72 253 -92 291 -16 31 -11 61 9 55 7 -3 43 -65 80 -139z m862 -70
c34 -26 33 -35 -5 -54 -41 -22 -59 -13 -59 28 0 53 19 61 64 26z m-204 -56 c0
-82 -27 -99 -54 -32 -19 47 -13 77 17 88 28 11 37 -2 37 -56z m102 56 c2 -7 1
-30 -2 -53 -4 -32 -9 -41 -25 -41 -29 0 -49 46 -34 79 13 27 54 37 61 15z
m-198 -85 c17 -50 14 -64 -11 -64 -43 0 -79 70 -51 98 25 25 46 13 62 -34z
m400 -35 c23 -42 26 -53 15 -60 -22 -14 -37 -10 -53 13 -23 32 -21 98 3 98 3
0 19 -23 35 -51z m-483 -30 c21 -17 39 -37 39 -44 0 -22 -36 -27 -68 -11 -44
22 -55 41 -42 65 14 28 25 26 71 -10z m401 -6 c9 -70 -12 -81 -45 -25 -23 39
-16 62 17 62 20 0 25 -6 28 -37z m-87 -25 c9 -40 -10 -61 -31 -34 -14 20 -19
68 -7 79 11 11 31 -13 38 -45z m-101 13 c9 -10 20 -36 23 -57 6 -37 5 -38 -13
-24 -46 36 -66 75 -47 93 10 11 19 8 37 -12z m-55 -69 c49 -77 40 -92 -29 -44
-44 30 -57 56 -40 77 21 25 37 17 69 -33z m-220 2 c12 -15 21 -35 21 -44 0
-17 -2 -17 -37 1 -21 10 -43 19 -50 19 -19 0 -26 19 -13 35 19 23 56 18 79
-11z m626 -23 c29 -66 -2 -98 -44 -45 -23 30 -28 70 -8 77 26 11 35 6 52 -32z
m-106 -39 c7 -23 10 -50 6 -60 -6 -14 -11 -12 -36 18 -31 37 -36 59 -17 78 19
19 32 9 47 -36z m-372 2 c51 -35 64 -56 43 -69 -12 -7 -120 64 -120 80 0 12
10 25 19 25 3 0 29 -16 58 -36z m261 -6 c2 -14 10 -32 18 -38 8 -7 14 -23 14
-36 0 -39 -46 -32 -92 13 -43 42 -48 65 -15 81 39 19 72 11 75 -20z m-438 -21
c14 -7 26 -20 28 -29 3 -16 -3 -17 -45 -12 -57 8 -83 20 -83 39 0 27 45 28
100 2z m143 -42 c46 -32 49 -50 5 -41 -38 7 -74 39 -64 55 10 16 17 14 59 -14z
m214 -53 c35 -58 22 -71 -47 -46 -72 26 -76 34 -45 84 26 41 27 42 47 23 11
-10 31 -37 45 -61z m307 -4 c5 -20 3 -28 -7 -28 -19 0 -41 45 -33 66 6 15 9
16 20 3 7 -8 16 -26 20 -41z m-652 -3 c6 -14 9 -28 5 -31 -12 -12 -92 21 -95
39 -3 14 4 17 37 17 34 0 43 -4 53 -25z m574 3 c4 -13 18 -36 31 -52 25 -30
24 -43 -2 -33 -19 8 -55 66 -55 90 0 25 17 21 26 -5z m-480 -17 c5 -5 20 -11
34 -13 36 -5 32 -32 -6 -36 -32 -3 -89 32 -79 49 8 12 38 12 51 0z m442 -40
c41 -48 51 -71 33 -71 -16 0 -101 87 -101 103 0 30 26 18 68 -32z m-568 -16
c30 -15 37 -38 21 -63 -12 -20 -41 -11 -64 20 -17 22 -18 30 -7 43 15 18 14
18 50 0z m337 -26 c16 -14 17 -51 1 -67 -23 -23 -99 -9 -120 22 -12 18 -9 32
13 60 20 25 21 25 56 11 20 -9 42 -20 50 -26z m179 -5 c55 -57 71 -84 49 -84
-17 0 -128 97 -133 117 -8 30 41 10 84 -33z m210 -1 c-17 -45 -74 -128 -106
-153 -35 -28 -110 -55 -110 -40 0 5 21 24 48 43 26 19 61 54 77 77 17 22 38
52 48 66 22 28 53 33 43 7z m-581 -18 c26 -25 32 -45 15 -45 -17 0 -90 40 -90
49 0 29 44 27 75 -4z m315 -31 c64 -54 73 -122 9 -75 -15 11 -30 21 -33 21 -3
0 -16 4 -30 10 -23 8 -24 12 -15 40 13 37 28 38 69 4z m455 -33 c61 -23 138
-47 173 -53 34 -7 62 -17 62 -22 0 -8 -39 -76 -43 -76 -1 0 -52 24 -112 53
-61 29 -140 66 -177 82 -64 28 -78 42 -61 59 10 10 31 5 158 -43z m-798 -12
c29 -11 37 -27 23 -44 -18 -22 -54 -18 -84 10 -38 35 -35 59 7 50 17 -4 42
-11 54 -16z m146 -34 c20 -14 37 -30 37 -35 0 -23 -75 -39 -114 -24 -18 7 -20
22 -6 58 12 33 35 33 83 1z m637 -57 c94 -39 175 -78 178 -87 8 -21 -38 -99
-70 -119 -26 -15 -28 -15 -75 23 -26 21 -92 82 -145 134 -76 74 -95 97 -87
108 6 7 15 13 19 13 4 0 85 -32 180 -72z m-482 28 c10 -10 3 -18 -38 -39 l-50
-26 0 34 c0 51 48 68 88 31z m391 -157 c77 -73 141 -133 141 -136 0 -30 -86
-93 -127 -93 -13 0 -44 45 -107 156 -49 85 -91 166 -94 180 -4 20 0 24 21 24
18 0 63 -36 166 -131z m-143 -70 c40 -79 73 -156 73 -171 1 -18 -8 -33 -28
-47 -16 -12 -31 -21 -34 -21 -3 0 -8 19 -12 43 -8 48 -77 263 -95 296 -13 25
-6 55 12 49 6 -2 44 -69 84 -149z m892 -31 c28 -23 -4 -68 -49 -68 -17 0 -30
49 -18 71 10 20 39 19 67 -3z m-215 -30 c7 -52 -1 -98 -17 -98 -14 0 -46 62
-46 90 0 17 34 50 51 50 3 0 9 -19 12 -42z m105 -2 c-1 -53 -9 -69 -33 -64
-48 9 -39 108 9 108 23 0 25 -4 24 -44z m-195 -53 c17 -52 15 -63 -13 -63 -42
0 -83 89 -47 103 33 14 45 6 60 -40z m417 -76 c0 -26 -28 -32 -50 -12 -20 18
-29 93 -13 108 9 9 63 -73 63 -96z m-102 -5 c3 -55 -5 -64 -30 -34 -36 40 -29
97 11 90 12 -2 17 -17 19 -56z m-393 14 c34 -29 38 -36 26 -50 -19 -22 -39
-20 -78 10 -35 27 -40 43 -21 62 18 18 29 15 73 -22z m294 11 c6 -8 14 -28 17
-44 12 -59 -38 -51 -51 7 -10 45 10 65 34 37z m-69 -53 c23 -59 -1 -74 -38
-24 -22 29 -27 51 -16 63 11 11 45 -13 54 -39z m-72 -46 c17 -29 28 -56 23
-61 -10 -10 -101 52 -101 69 0 60 38 56 78 -8z m-219 6 c12 -15 21 -35 21 -45
0 -18 -1 -18 -37 1 -21 11 -43 20 -50 20 -16 0 -26 18 -19 35 9 25 62 18 85
-11z m626 -28 c25 -65 0 -90 -42 -43 -29 31 -35 65 -15 77 30 17 40 11 57 -34z
m-108 -37 c19 -65 8 -82 -28 -41 -30 33 -38 77 -16 85 23 10 31 1 44 -44z
m-370 5 c88 -60 61 -91 -29 -33 -45 29 -57 47 -41 62 10 11 15 9 70 -29z m261
-3 c2 -14 11 -35 19 -48 19 -29 10 -53 -20 -53 -28 0 -112 84 -101 101 9 16
46 28 74 26 18 -1 26 -9 28 -26z m-448 -19 c42 -20 56 -59 19 -49 -13 4 -36 7
-50 7 -34 0 -64 23 -56 44 8 20 42 20 87 -2z m153 -47 c40 -28 48 -45 20 -45
-27 0 -83 38 -83 55 0 22 20 19 63 -10z m181 -6 c68 -81 64 -120 -9 -92 -22 8
-48 17 -57 20 -10 3 -18 10 -18 15 0 13 44 88 52 88 3 0 18 -14 32 -31z m338
-49 c3 -21 0 -30 -9 -30 -18 0 -37 44 -29 65 9 25 33 3 38 -35z m-82 7 c0 -6
12 -28 26 -49 30 -43 26 -61 -7 -32 -26 22 -52 81 -44 95 8 11 25 2 25 -14z
m-575 -3 c22 -23 13 -40 -20 -36 -39 4 -65 20 -65 37 0 21 64 20 85 -1z m130
-33 c42 -10 39 -35 -5 -39 -25 -2 -42 3 -58 18 -26 25 -19 45 12 35 11 -4 35
-10 51 -14z m416 -36 c23 -31 39 -58 36 -61 -15 -15 -107 73 -107 102 0 30 31
11 71 -41z m-543 -42 c2 -11 -4 -26 -13 -33 -13 -11 -20 -11 -41 0 -29 16 -43
58 -23 70 19 13 74 -13 77 -37z m488 1 c57 -60 71 -84 47 -84 -21 1 -146 114
-136 124 16 16 48 2 89 -40z m-210 20 c18 -9 36 -24 39 -35 10 -29 -12 -59
-43 -59 -70 0 -112 51 -77 90 22 24 37 25 81 4z m414 -30 c-34 -89 -133 -184
-189 -184 l-26 1 25 20 c50 40 112 105 132 139 36 61 78 78 58 24z m-575 -10
c41 -45 31 -55 -29 -30 -37 15 -50 31 -41 46 11 18 46 10 70 -16z m326 -43
c22 -21 39 -48 39 -60 0 -26 -10 -27 -42 -2 -13 11 -37 23 -51 26 -35 9 -40
18 -26 49 17 36 35 33 80 -13z m350 15 c78 -34 231 -84 284 -92 41 -6 45 -9
39 -28 -8 -27 -34 -56 -50 -56 -6 0 -61 24 -120 53 -60 30 -135 64 -166 77
-60 24 -62 27 -52 54 8 20 1 20 65 -8z m-736 -37 c49 -14 65 -26 58 -44 -13
-35 -89 -19 -112 24 -17 32 -5 36 54 20z m178 -44 c42 -29 44 -33 20 -51 -23
-17 -84 -18 -105 -1 -14 10 -14 16 -2 45 17 39 37 41 87 7z m642 -60 c165 -71
170 -74 168 -101 -3 -32 -27 -69 -66 -97 l-26 -20 -38 29 c-76 58 -256 240
-249 252 12 20 36 13 211 -63z m-488 31 c9 -8 0 -17 -37 -38 l-50 -28 0 35 c0
51 48 68 87 31z m358 -128 c39 -36 94 -87 122 -113 l53 -47 -17 -29 c-16 -27
-87 -69 -116 -69 -7 0 -47 60 -89 133 -118 206 -124 222 -90 230 18 4 28 -4
137 -105z m-111 -97 c42 -83 76 -160 76 -173 0 -14 -12 -31 -32 -45 l-32 -23
-22 83 c-13 45 -39 128 -58 184 -40 115 -42 123 -22 123 9 0 46 -61 90 -149z"/>
        <path d="M4140 5073 c-50 -26 -80 -87 -87 -176 l-6 -73 -109 -12 c-206 -23
-282 -77 -256 -179 11 -43 94 -132 173 -184 36 -24 65 -48 65 -52 0 -4 -51 -5
-114 -1 -195 12 -226 -4 -226 -119 0 -121 52 -180 159 -179 l56 0 -4 -51 c-4
-66 13 -121 47 -147 24 -19 37 -21 109 -18 l82 3 28 -55 c33 -64 75 -90 143
-90 69 1 112 34 145 113 l14 34 80 -5 c65 -4 86 -1 107 13 38 24 57 79 52 146
l-4 57 50 -1 c107 -2 166 61 166 176 0 117 -29 133 -217 123 -68 -3 -123 -3
-123 1 0 5 26 26 57 47 130 91 183 155 183 223 0 83 -77 124 -272 146 l-103
12 -1 66 c-4 149 -93 234 -194 182z m130 -31 c45 -45 53 -94 45 -276 -8 -180
4 -262 50 -322 43 -56 76 -65 239 -62 140 3 146 2 168 -20 19 -19 23 -33 23
-90 0 -77 -16 -111 -68 -142 -35 -22 -91 -26 -131 -10 -27 10 -27 8 -11 -74 2
-11 -1 -42 -6 -68 -9 -39 -18 -54 -42 -69 -53 -32 -170 -19 -180 19 -3 11 -5
9 -6 -7 -2 -37 -60 -137 -88 -152 -35 -19 -112 -16 -144 4 -14 9 -38 44 -54
78 -25 51 -32 59 -50 54 -90 -26 -170 -11 -196 37 -14 26 -17 120 -6 160 7 26
6 27 -19 18 -62 -24 -148 -1 -177 49 -37 62 -34 175 6 201 16 10 61 14 177 15
147 0 157 1 189 24 20 14 44 47 60 80 26 55 26 58 24 259 -3 221 4 263 55 302
39 31 106 27 142 -8z m-209 -364 c0 -91 -4 -126 -20 -168 -23 -60 -56 -100
-83 -100 -45 0 -223 141 -254 202 -41 79 0 134 126 168 53 15 211 29 223 20 4
-4 8 -58 8 -122z m477 107 c76 -18 138 -48 152 -74 36 -68 -30 -162 -187 -267
-60 -40 -82 -42 -110 -11 -54 58 -79 168 -67 295 l6 72 72 0 c39 0 99 -7 134
-15z"/>
        <path d="M4450 4217 c0 -3 17 -17 37 -33 20 -15 33 -23 29 -16 -8 13 -66 56
-66 49z"/>
        <path d="M3884 4178 l-19 -23 23 19 c21 18 27 26 19 26 -2 0 -12 -10 -23 -22z"/>
        <path d="M3839 4143 c-13 -16 -12 -17 4 -4 9 7 17 15 17 17 0 8 -8 3 -21 -13z"/>
        <path d="M4530 4156 c0 -2 8 -10 18 -17 15 -13 16 -12 3 4 -13 16 -21 21 -21
13z"/>
        <path d="M4042 4005 c0 -16 2 -22 5 -12 2 9 2 23 0 30 -3 6 -5 -1 -5 -18z"/>
        <path d="M4342 4005 c0 -16 2 -22 5 -12 2 9 2 23 0 30 -3 6 -5 -1 -5 -18z"/>
        <path d="M1731 2677 c154 -119 245 -288 250 -465 2 -72 -7 -85 -56 -77 -55 10
-229 104 -322 174 l-93 70 0 -315 0 -316 53 45 c128 109 311 216 375 220 l37
2 -1 -90 c-1 -69 -7 -108 -28 -170 -33 -99 -102 -221 -167 -297 -27 -31 -49
-59 -49 -62 0 -3 158 -6 350 -6 194 0 350 4 350 9 0 5 -7 15 -17 22 -34 29
-112 141 -152 221 -68 137 -108 346 -70 371 38 24 196 -58 359 -185 l100 -77
0 315 0 316 -47 -40 c-137 -114 -356 -225 -406 -206 -24 9 -27 29 -17 108 19
154 84 281 196 385 l65 61 -363 0 c-287 -1 -360 -3 -347 -13z"/>
        <path d="M2490 3945 c0 -22 45 -65 68 -65 32 0 35 29 5 56 -29 27 -73 33 -73
9z"/>
        <path d="M2344 3836 c-10 -26 34 -86 62 -86 20 0 17 27 -7 66 -22 36 -46 44
-55 20z"/>
        <path d="M3520 2976 c0 -24 41 -66 65 -66 43 0 36 43 -12 68 -29 16 -53 15
-53 -2z"/>
        <path d="M3374 2866 c-12 -31 52 -103 73 -82 10 9 -6 51 -27 74 -24 26 -38 28
-46 8z"/>
        <path d="M4580 2035 c0 -21 45 -65 65 -65 29 0 30 32 1 57 -31 26 -66 31 -66
8z"/>
        <path d="M4434 1926 c-10 -26 34 -86 62 -86 22 0 17 30 -12 67 -27 36 -41 41
-50 19z"/>
        <path d="M1580 5547 c-94 -61 -115 -85 -74 -79 16 2 33 -17 78 -84 53 -79 56
-87 42 -103 -18 -19 -20 -31 -7 -31 4 0 38 19 74 43 36 23 86 54 111 69 l46
27 -17 38 c-10 21 -19 40 -21 43 -6 9 -20 -23 -15 -36 7 -20 -15 -53 -50 -74
-43 -27 -52 -25 -76 14 -26 42 -26 40 5 61 22 14 30 15 50 4 37 -20 39 -4 4
46 -32 46 -53 53 -43 14 4 -15 -1 -27 -18 -40 -34 -26 -41 -24 -66 20 l-23 39
45 26 c38 22 47 24 69 14 15 -6 29 -8 33 -5 10 11 -19 57 -36 57 -9 0 -59 -28
-111 -63z"/>
        <path d="M4710 5526 c0 -8 5 -18 10 -21 19 -12 9 -35 -51 -115 -50 -67 -64
-79 -75 -69 -10 8 -18 9 -24 3 -13 -13 77 -77 92 -68 7 5 5 12 -7 20 -18 13
-16 18 29 84 27 39 50 69 52 67 2 -2 13 -65 24 -141 21 -141 24 -156 40 -156
5 0 41 44 80 99 62 87 73 98 95 93 36 -6 30 9 -14 41 -54 37 -74 37 -50 -1 10
-15 5 -28 -26 -75 -21 -31 -41 -57 -45 -57 -3 0 -14 55 -23 123 -16 120 -17
123 -54 155 -40 35 -53 40 -53 18z"/>
        <path d="M1307 5354 c-52 -49 -59 -67 -24 -59 16 4 30 -2 52 -25 l29 -30 -49
-45 c-28 -24 -52 -44 -55 -44 -3 0 -18 16 -34 35 -23 28 -26 37 -16 49 28 34
-2 24 -49 -15 -55 -47 -64 -64 -28 -55 19 5 33 -5 78 -57 84 -97 82 -94 69
-117 -18 -34 6 -26 61 22 56 48 61 61 22 53 -23 -5 -33 -1 -55 28 l-28 34 51
43 50 42 32 -32 c27 -26 30 -34 20 -50 -22 -35 0 -31 51 11 28 23 53 43 55 44
1 2 0 7 -4 13 -4 7 -12 8 -24 1 -15 -8 -30 3 -86 66 -55 61 -66 79 -61 99 10
39 -7 36 -57 -11z"/>
        <path d="M5095 5213 c5 -23 -2 -35 -62 -95 -59 -60 -71 -68 -95 -62 -16 3 -28
2 -28 -2 0 -8 81 -98 94 -103 5 -2 6 7 3 21 -5 20 1 32 30 59 23 22 34 27 30
16 -4 -10 -7 -39 -7 -63 0 -41 -2 -45 -20 -39 -12 4 -20 2 -20 -4 0 -12 80
-101 91 -101 4 0 6 17 6 38 0 20 3 67 7 105 l8 67 49 0 c28 0 63 -7 78 -15 45
-23 45 -5 -1 42 -46 47 -63 54 -53 23 6 -19 2 -20 -57 -20 l-63 0 33 32 c28
28 35 31 52 21 38 -24 28 5 -19 55 -27 29 -52 52 -56 52 -4 0 -4 -12 0 -27z"/>
        <path d="M314 3275 c-58 -30 -80 -104 -49 -165 21 -40 53 -60 98 -60 76 0 127
50 127 125 0 80 -102 138 -176 100z"/>
        <path d="M5842 3270 c-46 -28 -68 -82 -53 -131 27 -88 127 -118 195 -58 21 18
38 43 41 63 14 70 -49 146 -120 146 -16 0 -45 -9 -63 -20z"/>
        <path d="M5460 1903 c-30 -60 -56 -111 -58 -115 -7 -15 21 -8 33 8 10 15 21
12 104 -31 83 -43 92 -50 87 -71 -11 -41 12 -35 32 8 10 24 38 77 61 118 l43
75 -33 29 c-36 32 -51 22 -29 -20 11 -19 10 -31 -5 -69 -9 -26 -23 -49 -30
-51 -10 -4 -67 17 -83 31 -2 2 4 17 13 34 11 22 23 31 40 31 38 0 30 18 -20
42 -49 24 -63 21 -44 -10 10 -16 10 -26 0 -51 l-13 -30 -39 20 c-21 10 -39 23
-39 27 1 21 48 87 65 90 46 7 51 13 25 27 -46 26 -53 19 -110 -92z"/>
        <path d="M681 1952 c-40 -22 -71 -73 -71 -117 1 -67 65 -161 104 -151 11 3 24
6 29 6 20 0 3 29 -20 35 -39 9 -73 44 -73 75 0 35 24 67 70 90 51 26 94 26
121 -1 19 -19 21 -29 15 -75 -7 -58 -1 -64 34 -36 21 17 21 21 9 61 -7 23 -29
61 -49 83 -31 35 -42 41 -85 45 -37 3 -59 -1 -84 -15z"/>
        <path d="M5307 1639 c-20 -11 -107 -140 -107 -158 0 -8 5 -8 19 1 16 10 30 3
100 -47 62 -44 81 -64 81 -82 0 -12 5 -23 10 -23 6 0 10 4 10 9 0 5 16 31 36
56 36 48 38 69 4 47 -17 -10 -26 -8 -55 10 -60 39 -37 56 55 41 l60 -10 25 37
c14 20 25 38 25 41 0 2 -36 3 -80 1 -69 -4 -79 -2 -74 11 6 16 -12 57 -30 69
-16 11 -58 9 -79 -3z m45 -66 c22 -19 23 -33 4 -58 -13 -18 -15 -18 -51 9 -35
27 -36 29 -19 47 21 23 42 24 66 2z"/>
        <path d="M883 1620 c-67 -41 -87 -105 -53 -175 42 -87 117 -120 194 -87 79 35
105 107 66 187 -42 86 -134 120 -207 75z m157 -50 c23 -23 26 -76 7 -101 -23
-31 -90 -69 -120 -69 -60 0 -87 61 -51 116 20 30 91 74 122 74 12 0 31 -9 42
-20z"/>
        <path d="M5107 1403 c-4 -3 -7 -14 -7 -22 0 -19 -129 -151 -148 -151 -16 0
-15 -15 3 -50 20 -40 35 -38 35 3 0 32 24 67 46 67 5 0 38 -28 72 -63 58 -59
62 -65 56 -97 l-7 -35 57 55 c31 30 56 58 56 63 0 5 -12 6 -28 3 -24 -6 -36 2
-95 62 -67 67 -67 68 -48 86 14 13 28 16 46 12 17 -4 25 -2 25 7 0 17 -54 69
-63 60z"/>
        <path d="M1225 1332 c5 -25 -1 -35 -64 -91 -39 -34 -79 -61 -88 -60 -36 3 -36
-2 2 -41 39 -40 64 -45 44 -8 -10 18 -4 27 42 74 29 29 54 52 56 50 2 -2 -12
-46 -31 -97 -20 -51 -32 -97 -28 -101 5 -5 28 0 53 11 24 11 68 29 98 41 l54
21 -53 -61 c-44 -50 -56 -59 -76 -54 -13 3 -24 4 -24 1 0 -3 22 -28 49 -56 47
-49 71 -58 50 -19 -11 20 -2 33 83 126 31 34 43 41 63 36 34 -8 31 6 -8 44
l-33 32 -85 -34 c-46 -19 -85 -33 -86 -32 -2 1 10 42 27 90 l29 87 -31 34
c-37 42 -52 45 -43 7z"/>
        <path d="M4817 1099 c-40 -33 -42 -49 -5 -42 18 3 33 -8 67 -47 24 -28 41 -53
39 -55 -2 -2 -55 3 -118 11 -145 18 -131 19 -173 -13 -44 -34 -47 -47 -8 -38
25 5 33 0 64 -36 71 -82 91 -117 77 -134 -25 -30 -1 -27 44 6 53 37 59 53 17
44 -26 -6 -34 -1 -75 51 -26 31 -45 59 -42 61 2 3 66 -3 141 -12 94 -11 141
-13 148 -6 7 7 -12 38 -62 98 -60 73 -71 93 -67 116 7 35 -1 34 -47 -4z"/>
        <path d="M1565 1031 c-3 -5 -1 -12 5 -16 19 -12 10 -31 -47 -108 -49 -66 -61
-77 -80 -72 -36 9 -27 -10 19 -44 42 -31 59 -29 40 6 -8 13 -1 30 30 75 23 32
42 57 44 55 2 -1 -4 -44 -12 -95 -8 -51 -12 -97 -9 -102 4 -6 25 2 48 18 23
16 64 42 91 57 l49 28 -41 -64 c-28 -44 -47 -64 -61 -64 -34 -1 -25 -14 33
-56 34 -25 56 -35 56 -27 0 8 -5 19 -11 25 -7 7 5 36 43 97 45 74 56 86 76 83
38 -7 35 11 -7 38 -23 14 -44 25 -48 25 -5 0 -39 -20 -78 -45 -38 -24 -71 -42
-74 -40 -2 3 2 44 9 91 12 87 12 87 -11 106 -39 31 -57 39 -64 29z"/>
        <path d="M4450 842 c-111 -58 -190 -105 -190 -113 0 -5 12 -8 27 -7 25 3 32
-5 77 -86 45 -81 48 -90 33 -101 -9 -7 -17 -17 -17 -23 0 -11 202 89 227 112
10 9 10 20 1 49 -13 44 -25 47 -34 10 -10 -49 -13 -52 -46 -73 -46 -28 -62
-25 -81 15 -22 45 -22 42 14 60 28 15 32 15 48 1 29 -27 31 -6 5 46 -23 46
-52 58 -41 17 4 -13 -4 -25 -23 -39 -15 -11 -31 -20 -34 -20 -3 0 -15 18 -26
40 l-20 40 41 21 c40 20 52 20 92 4 12 -5 17 -3 17 8 0 8 -8 24 -17 36 -18 21
-18 21 -53 3z"/>
        <path d="M1950 779 c0 -7 7 -17 15 -23 14 -10 12 -21 -20 -88 -19 -42 -35 -90
-35 -106 0 -33 29 -64 82 -87 82 -33 122 -9 166 100 22 53 34 71 50 73 33 5
27 16 -23 40 -45 22 -74 13 -40 -12 15 -11 15 -16 -4 -66 -36 -95 -56 -120
-96 -120 -36 0 -75 28 -75 54 0 8 15 49 34 93 26 61 37 78 54 78 43 0 32 15
-33 44 -77 35 -75 35 -75 20z"/>
        <path d="M4080 670 c-116 -40 -155 -145 -84 -229 35 -42 82 -56 144 -41 69 17
100 43 100 86 0 39 -14 44 -31 12 -48 -93 -132 -90 -168 5 -17 44 -13 102 7
120 21 19 74 22 104 6 31 -17 42 3 18 34 -25 32 -20 31 -90 7z"/>
        <path d="M2320 618 c0 -7 9 -19 21 -26 12 -8 18 -20 15 -30 -3 -9 -14 -54 -26
-99 -17 -64 -26 -82 -39 -80 -9 1 -17 -2 -17 -8 -1 -9 66 -35 94 -35 20 0 14
21 -8 27 -13 4 -19 11 -16 22 3 9 10 42 17 74 7 32 15 60 19 62 4 2 38 -48 75
-111 68 -115 90 -139 105 -114 4 7 18 59 31 116 21 95 25 104 46 104 36 0 27
18 -14 29 -66 19 -92 12 -57 -14 15 -11 15 -19 4 -78 -8 -37 -16 -67 -19 -67
-4 0 -35 48 -69 106 -62 103 -73 113 -134 128 -20 4 -28 2 -28 -6z"/>
        <path d="M3608 533 c-39 -4 -50 -19 -23 -29 12 -5 10 -15 -11 -57 l-26 -51
-42 44 c-33 36 -38 45 -23 48 9 2 17 9 17 16 0 12 -32 12 -107 0 -32 -5 -47
-24 -19 -24 26 0 124 -122 131 -163 7 -34 5 -39 -14 -44 -22 -6 -23 -30 -2
-25 7 1 39 5 72 9 59 6 75 18 42 30 -25 9 -33 23 -33 61 0 35 54 152 76 165
15 8 20 28 7 25 -5 -1 -25 -3 -45 -5z"/>
        <path d="M2767 523 c-12 -11 -8 -20 12 -26 17 -4 18 -9 5 -101 -15 -106 -18
-116 -40 -116 -33 0 -10 -18 31 -23 25 -4 56 -9 70 -13 19 -5 25 -2 25 10 0 9
-7 16 -16 16 -15 0 -16 9 -10 77 10 110 16 132 37 138 33 11 21 22 -28 29 -27
4 -55 9 -64 12 -8 2 -18 1 -22 -3z"/>
        <path d="M3017 503 c-3 -5 -8 -23 -12 -40 -7 -35 4 -43 25 -18 7 8 27 15 45
15 l32 0 6 -73 c6 -90 0 -125 -24 -132 -41 -13 -15 -25 56 -25 72 0 97 12 55
25 -18 6 -20 15 -20 106 l0 99 29 0 c21 0 32 -6 36 -20 12 -39 35 -23 35 25 0
42 -11 58 -25 35 -3 -6 -52 -10 -111 -10 -63 0 -104 4 -104 10 0 12 -17 13
-23 3z"/>
    </g>
</svg>
